<svg xmlns="http://www.w3.org/2000/svg" version="1.1" xmlns:xlink="http://www.w3.org/1999/xlink" xmlns:svgjs="http://svgjs.com/svgjs" width="20" height="20"><svg width="424" height="424" viewBox="0 0 424 424" fill="none" xmlns="http://www.w3.org/2000/svg">
<circle cx="212" cy="212" r="212" fill="black"></circle>
<path d="M258.836 324.175C266.749 324.175 274.478 323.386 281.905 321.802C289.513 320.22 297.06 318.213 304.487 315.839V369.826C296.696 373.294 287.078 376.155 275.452 378.409C264.009 380.782 251.533 382 237.898 382C222.073 382 207.769 379.444 195.109 374.392C182.571 369.157 172.71 360.21 165.406 347.549C158.285 334.706 154.694 316.872 154.694 294.047V165.802L120 172.376V117.9L154.694 111.753V54.7821L227.186 42V99.0317L301.626 85.8846V140.36L227.186 153.507V293.988C227.186 304.152 230.046 311.76 235.768 316.811C241.612 321.743 249.341 324.175 258.836 324.175Z" fill="white" stroke="white" stroke-width="4.85714" stroke-linejoin="round"></path>
</svg><style>@media (prefers-color-scheme: light) { :root { filter: none; } }
@media (prefers-color-scheme: dark) { :root { filter: none; } }
</style></svg>